Newfancy.ufo
<glyph name="cent" format="2">
  <advance width="460"/>
  <unicode hex="00A2"/>
  <outline>
    <contour>
      <point x="275" y="486" type="line"/>
      <point x="238" y="439" type="line"/>
      <point x="204" y="285" type="line"/>
      <point x="221" y="236" type="line"/>
      <point x="231" y="236" type="line"/>
      <point x="285" y="486" type="line"/>
    </contour>
    <contour>
      <point x="126" y="475" type="line"/>
      <point x="242" y="604" type="line"/>
      <point x="310" y="604" type="line"/>
      <point x="344" y="761" type="line"/>
      <point x="440" y="761" type="line"/>
      <point x="406" y="604" type="line"/>
      <point x="483" y="604" type="line"/>
      <point x="543" y="475" type="line"/>
      <point x="523" y="378" type="line"/>
      <point x="404" y="378" type="line"/>
      <point x="417" y="439" type="line"/>
      <point x="400" y="486" type="line"/>
      <point x="381" y="486" type="line"/>
      <point x="326" y="236" type="line"/>
      <point x="346" y="236" type="line"/>
      <point x="383" y="285" type="line"/>
      <point x="395" y="342" type="line"/>
      <point x="514" y="342" type="line"/>
      <point x="495" y="251" type="line"/>
      <point x="378" y="116" type="line"/>
      <point x="300" y="116" type="line"/>
      <point x="267" y="-45" type="line"/>
      <point x="173" y="-45" type="line"/>
      <point x="206" y="116" type="line"/>
      <point x="137" y="116" type="line"/>
      <point x="78" y="251" type="line"/>
    </contour>
  </outline>
</glyph>
<glyph name="Ccedilla" format="2">
  <advance width="460"/>
  <unicode hex="00C7"/>
  <outline>
    <contour>
      <point x="261" y="693" type="line"/>
      <point x="502" y="693" type="line"/>
      <point x="562" y="564" type="line"/>
      <point x="542" y="467" type="line"/>
      <point x="423" y="467" type="line"/>
      <point x="436" y="528" type="line"/>
      <point x="419" y="575" type="line"/>
      <point x="294" y="575" type="line"/>
      <point x="257" y="528" type="line"/>
      <point x="184" y="186" type="line"/>
      <point x="201" y="137" type="line"/>
      <point x="326" y="137" type="line"/>
      <point x="363" y="186" type="line"/>
      <point x="375" y="243" type="line"/>
      <point x="494" y="243" type="line"/>
      <point x="475" y="152" type="line"/>
      <point x="358" y="17" type="line"/>
      <point x="226" y="17" type="line"/>
      <point x="222" y="2" type="line"/>
      <point x="229" y="-8" type="line"/>
      <point x="330" y="-8" type="line"/>
      <point x="373" y="-76" type="line"/>
      <point x="350" y="-165" type="line"/>
      <point x="274" y="-239" type="line"/>
      <point x="126" y="-239" type="line"/>
      <point x="86" y="-161" type="line"/>
      <point x="96" y="-121" type="line"/>
      <point x="191" y="-121" type="line"/>
      <point x="186" y="-144" type="line"/>
      <point x="192" y="-159" type="line"/>
      <point x="245" y="-159" type="line"/>
      <point x="261" y="-141" type="line"/>
      <point x="263" y="-130"/>
      <point x="271" y="-100"/>
      <point x="274" y="-89" type="qcurve"/>
      <point x="266" y="-78" type="line"/>
      <point x="165" y="-78" type="line"/>
      <point x="121" y="-21" type="line"/>
      <point x="133" y="17" type="line"/>
      <point x="117" y="17" type="line"/>
      <point x="58" y="152" type="line"/>
      <point x="145" y="564" type="line"/>
    </contour>
  </outline>
</glyph>
<glyph name="Icircumflex" format="2">
  <advance width="278"/>
  <unicode hex="00CE"/>
  <outline>
    <contour>
      <point x="182" y="186" type="line"/>
      <point x="200" y="137" type="line"/>
      <point x="298" y="137" type="line"/>
      <point x="272" y="17" type="line"/>
      <point x="116" y="17" type="line"/>
      <point x="57" y="152" type="line"/>
      <point x="172" y="693" type="line"/>
      <point x="290" y="693" type="line"/>
    </contour>
    <contour>
      <point x="92" y="732" type="line"/>
      <point x="151" y="867" type="line"/>
      <point x="265" y="867" type="line"/>
      <point x="206" y="732" type="line"/>
    </contour>
    <contour>
      <point x="355" y="732" type="line"/>
      <point x="296" y="867" type="line"/>
      <point x="411" y="867" type="line"/>
      <point x="469" y="732" type="line"/>
    </contour>
  </outline>
</glyph>
<glyph name="ae" format="2">
  <advance width="750"/>
  <unicode hex="00E6"/>
  <outline>
    <contour>
      <point x="254" y="691" type="line"/>
      <point x="463" y="691" type="line"/>
      <point x="463" y="693" type="line"/>
      <point x="851" y="693" type="line"/>
      <point x="826" y="575" type="line"/>
      <point x="558" y="575" type="line"/>
      <point x="528" y="434" type="line"/>
      <point x="707" y="434" type="line"/>
      <point x="682" y="316" type="line"/>
      <point x="503" y="316" type="line"/>
      <point x="475" y="186" type="line"/>
      <point x="492" y="137" type="line"/>
      <point x="577" y="137" type="line"/>
      <point x="671" y="258" type="line"/>
      <point x="806" y="258" type="line"/>
      <point x="782" y="142" type="line"/>
      <point x="718" y="142" type="line"/>
      <point x="621" y="17" type="line"/>
      <point x="319" y="17" type="line"/>
      <point x="382" y="314" type="line"/>
      <point x="205" y="314" type="line"/>
      <point x="178" y="186" type="line"/>
      <point x="194" y="136" type="line"/>
      <point x="292" y="136" type="line"/>
      <point x="267" y="17" type="line"/>
      <point x="111" y="17" type="line"/>
      <point x="53" y="152" type="line"/>
      <point x="140" y="564" type="line"/>
    </contour>
    <contour>
      <point x="408" y="433" type="line"/>
      <point x="428" y="528" type="line"/>
      <point x="407" y="573" type="line"/>
      <point x="288" y="573" type="line"/>
      <point x="279" y="564"/>
      <point x="259" y="537"/>
      <point x="251" y="528" type="qcurve"/>
      <point x="231" y="433" type="line"/>
    </contour>
  </outline>
</glyph>
<glyph name="eth" format="2">
  <advance width="472"/>
  <unicode hex="00F0"/>
  <outline>
    <contour>
      <point x="120" y="314" type="line"/>
      <point x="67" y="314" type="line"/>
      <point x="93" y="434" type="line"/>
      <point x="146" y="434" type="line"/>
      <point x="201" y="694" type="line"/>
      <point x="519" y="694" type="line"/>
      <point x="579" y="564" type="line"/>
      <point x="492" y="152" type="line"/>
      <point x="375" y="17" type="line"/>
      <point x="146" y="17" type="line"/>
      <point x="86" y="152" type="line"/>
    </contour>
    <contour>
      <point x="381" y="186" type="line"/>
      <point x="454" y="528" type="line"/>
      <point x="449" y="537"/>
      <point x="440" y="566"/>
      <point x="435" y="575" type="qcurve"/>
      <point x="296" y="575" type="line"/>
      <point x="266" y="434" type="line"/>
      <point x="375" y="434" type="line"/>
      <point x="349" y="314" type="line"/>
      <point x="240" y="314" type="line"/>
      <point x="213" y="186" type="line"/>
      <point x="229" y="137" type="line"/>
      <point x="343" y="137" type="line"/>
    </contour>
  </outline>
</glyph>
<glyph name="ntilde" format="2">
  <advance width="537"/>
  <unicode hex="00F1"/>
  <outline>
    <contour>
      <point x="259" y="765" type="line"/>
      <point x="268" y="785"/>
      <point x="292" y="825"/>
      <point x="322" y="856"/>
      <point x="360" y="876"/>
      <point x="383" y="876" type="qcurve" smooth="yes"/>
      <point x="405" y="876"/>
      <point x="448" y="854"/>
      <point x="465" y="842" type="qcurve" smooth="yes"/>
      <point x="483" y="830"/>
      <point x="496" y="827"/>
      <point x="499" y="827" type="qcurve" smooth="yes"/>
      <point x="510" y="827"/>
      <point x="525" y="848"/>
      <point x="541" y="876" type="qcurve"/>
      <point x="625" y="843" type="line"/>
      <point x="615" y="823"/>
      <point x="592" y="784"/>
      <point x="562" y="752"/>
      <point x="524" y="732"/>
      <point x="500" y="732" type="qcurve" smooth="yes"/>
      <point x="478" y="732"/>
      <point x="434" y="755"/>
      <point x="417" y="766" type="qcurve" smooth="yes"/>
      <point x="406" y="773"/>
      <point x="390" y="784"/>
      <point x="377" y="784"/>
      <point x="365" y="772"/>
      <point x="358" y="757" type="qcurve" smooth="yes"/>
      <point x="356" y="752"/>
      <point x="347" y="733"/>
      <point x="345" y="729" type="qcurve"/>
    </contour>
    <contour>
      <point x="437" y="254" type="line"/>
      <point x="531" y="694" type="line"/>
      <point x="651" y="694" type="line"/>
      <point x="507" y="17" type="line"/>
      <point x="371" y="17" type="line"/>
      <point x="244" y="464" type="line"/>
      <point x="185" y="186" type="line"/>
      <point x="202" y="137" type="line"/>
      <point x="300" y="137" type="line"/>
      <point x="274" y="17" type="line"/>
      <point x="118" y="17" type="line"/>
      <point x="58" y="152" type="line"/>
      <point x="173" y="694" type="line"/>
      <point x="313" y="694" type="line"/>
    </contour>
  </outline>
</glyph>
<glyph name="otilde" format="2">
  <advance width="472"/>
  <unicode hex="00F5"/>
  <outline>
    <contour>
      <point x="200" y="765" type="line"/>
      <point x="209" y="785"/>
      <point x="233" y="825"/>
      <point x="263" y="856"/>
      <point x="301" y="876"/>
      <point x="324" y="876" type="qcurve" smooth="yes"/>
      <point x="346" y="876"/>
      <point x="389" y="854"/>
      <point x="406" y="842" type="qcurve" smooth="yes"/>
      <point x="424" y="830"/>
      <point x="437" y="827"/>
      <point x="440" y="827" type="qcurve" smooth="yes"/>
      <point x="451" y="827"/>
      <point x="466" y="848"/>
      <point x="482" y="876" type="qcurve"/>
      <point x="566" y="843" type="line"/>
      <point x="556" y="823"/>
      <point x="533" y="784"/>
      <point x="503" y="752"/>
      <point x="465" y="732"/>
      <point x="441" y="732" type="qcurve" smooth="yes"/>
      <point x="419" y="732"/>
      <point x="375" y="755"/>
      <point x="358" y="766" type="qcurve" smooth="yes"/>
      <point x="347" y="773"/>
      <point x="331" y="784"/>
      <point x="318" y="784"/>
      <point x="306" y="772"/>
      <point x="299" y="757" type="qcurve" smooth="yes"/>
      <point x="297" y="752"/>
      <point x="288" y="733"/>
      <point x="286" y="729" type="qcurve"/>
    </contour>
    <contour>
      <point x="263" y="693" type="line"/>
      <point x="504" y="693" type="line"/>
      <point x="564" y="564" type="line"/>
      <point x="477" y="152" type="line"/>
      <point x="360" y="17" type="line"/>
      <point x="119" y="17" type="line"/>
      <point x="59" y="152" type="line"/>
      <point x="146" y="564" type="line"/>
    </contour>
    <contour>
      <point x="365" y="186" type="line"/>
      <point x="438" y="528" type="line"/>
      <point x="421" y="575" type="line"/>
      <point x="295" y="575" type="line"/>
      <point x="259" y="528" type="line"/>
      <point x="186" y="186" type="line"/>
      <point x="202" y="137" type="line"/>
      <point x="328" y="137" type="line"/>
    </contour>
  </outline>
</glyph>
<glyph name="Aogonek" format="2">
  <advance width="460"/>
  <unicode hex="0104"/>
  <outline>
    <contour>
      <point x="254" y="691" type="line"/>
      <point x="490" y="691" type="line"/>
      <point x="553" y="564" type="line"/>
      <point x="437" y="17" type="line"/>
      <point x="319" y="17" type="line"/>
      <point x="382" y="314" type="line"/>
      <point x="205" y="314" type="line"/>
      <point x="178" y="186" type="line"/>
      <point x="194" y="136" type="line"/>
      <point x="292" y="136" type="line"/>
      <point x="267" y="17" type="line"/>
      <point x="111" y="17" type="line"/>
      <point x="53" y="152" type="line"/>
      <point x="140" y="564" type="line"/>
    </contour>
    <contour>
      <point x="408" y="433" type="line"/>
      <point x="428" y="528" type="line"/>
      <point x="407" y="573" type="line"/>
      <point x="288" y="573" type="line"/>
      <point x="279" y="564"/>
      <point x="259" y="537"/>
      <point x="251" y="528" type="qcurve"/>
      <point x="231" y="433" type="line"/>
    </contour>
    <contour>
      <point x="332" y="10" type="line"/>
      <point x="344" y="68" type="line"/>
      <point x="433" y="68" type="line"/>
      <point x="403" y="-61" type="line"/>
      <point x="260" y="-61" type="line"/>
      <point x="245" y="-132" type="line"/>
      <point x="247" y="-137"/>
      <point x="249" y="-139"/>
      <point x="251" y="-144" type="qcurve"/>
      <point x="303" y="-144" type="line"/>
      <point x="317" y="-129" type="line"/>
      <point x="323" y="-106" type="line"/>
      <point x="408" y="-106" type="line"/>
      <point x="395" y="-158" type="line"/>
      <point x="329" y="-223" type="line"/>
      <point x="193" y="-223" type="line"/>
      <point x="158" y="-155" type="line"/>
      <point x="189" y="-18" type="line"/>
      <point x="244" y="10" type="line"/>
    </contour>
  </outline>
</glyph>
<glyph name="Cdotaccent" format="2">
  <advance width="460"/>
  <unicode hex="010A"/>
  <outline>
    <contour>
      <point x="261" y="693" type="line"/>
      <point x="502" y="693" type="line"/>
      <point x="562" y="564" type="line"/>
      <point x="542" y="467" type="line"/>
      <point x="423" y="467" type="line"/>
      <point x="436" y="528" type="line"/>
      <point x="419" y="575" type="line"/>
      <point x="294" y="575" type="line"/>
      <point x="257" y="528" type="line"/>
      <point x="184" y="186" type="line"/>
      <point x="201" y="137" type="line"/>
      <point x="326" y="137" type="line"/>
      <point x="363" y="186" type="line"/>
      <point x="375" y="243" type="line"/>
      <point x="494" y="243" type="line"/>
      <point x="475" y="152" type="line"/>
      <point x="358" y="17" type="line"/>
      <point x="117" y="17" type="line"/>
      <point x="58" y="152" type="line"/>
      <point x="145" y="564" type="line"/>
    </contour>
    <contour>
      <point x="314" y="731" type="line"/>
      <point x="340" y="851" type="line"/>
      <point x="459" y="851" type="line"/>
      <point x="433" y="731" type="line"/>
    </contour>
  </outline>
</glyph>
<glyph name="Dcroat" format="2">
  <advance width="513"/>
  <unicode hex="0110"/>
  <outline>
    <contour>
      <point x="220" y="694" type="line"/>
      <point x="538" y="694" type="line"/>
      <point x="598" y="564" type="line"/>
      <point x="511" y="152" type="line"/>
      <point x="394" y="17" type="line"/>
      <point x="165" y="17" type="line"/>
      <point x="105" y="152" type="line"/>
    </contour>
    <contour>
      <point x="400" y="186" type="line"/>
      <point x="473" y="528" type="line"/>
      <point x="468" y="537"/>
      <point x="459" y="566"/>
      <point x="454" y="575" type="qcurve"/>
      <point x="315" y="575" type="line"/>
      <point x="232" y="186" type="line"/>
      <point x="248" y="137" type="line"/>
      <point x="362" y="137" type="line"/>
    </contour>
    <contour>
      <point x="63" y="314" type="line"/>
      <point x="89" y="434" type="line"/>
      <point x="371" y="434" type="line"/>
      <point x="345" y="314" type="line"/>
    </contour>
  </outline>
</glyph>
<glyph name="ebreve" format="2">
  <advance width="477"/>
  <unicode hex="0115"/>
  <outline>
    <contour>
      <point x="381" y="258" type="line"/>
      <point x="516" y="258" type="line"/>
      <point x="492" y="142" type="line"/>
      <point x="428" y="142" type="line"/>
      <point x="331" y="17" type="line"/>
      <point x="120" y="17" type="line"/>
      <point x="58" y="152" type="line"/>
      <point x="173" y="693" type="line"/>
      <point x="561" y="693" type="line"/>
      <point x="536" y="575" type="line"/>
      <point x="268" y="575" type="line"/>
      <point x="238" y="434" type="line"/>
      <point x="417" y="434" type="line"/>
      <point x="392" y="316" type="line"/>
      <point x="213" y="316" type="line"/>
      <point x="185" y="186" type="line"/>
      <point x="202" y="137" type="line"/>
      <point x="287" y="137" type="line"/>
    </contour>
    <contour>
      <point x="461" y="731" type="line"/>
      <point x="293" y="731" type="line"/>
      <point x="245" y="857" type="line"/>
      <point x="254" y="896" type="line"/>
      <point x="355" y="896" type="line"/>
      <point x="352" y="881" type="line"/>
      <point x="364" y="848" type="line"/>
      <point x="431" y="848" type="line"/>
      <point x="475" y="881" type="line"/>
      <point x="479" y="896" type="line"/>
      <point x="566" y="896" type="line"/>
      <point x="556" y="857" type="line"/>
    </contour>
  </outline>
</glyph>
<glyph name="Eogonek" format="2">
  <advance width="477"/>
  <unicode hex="0118"/>
  <outline>
    <contour>
      <point x="381" y="258" type="line"/>
      <point x="516" y="258" type="line"/>
      <point x="492" y="142" type="line"/>
      <point x="428" y="142" type="line"/>
      <point x="331" y="17" type="line"/>
      <point x="120" y="17" type="line"/>
      <point x="58" y="152" type="line"/>
      <point x="173" y="693" type="line"/>
      <point x="561" y="693" type="line"/>
      <point x="536" y="575" type="line"/>
      <point x="268" y="575" type="line"/>
      <point x="238" y="434" type="line"/>
      <point x="417" y="434" type="line"/>
      <point x="392" y="316" type="line"/>
      <point x="213" y="316" type="line"/>
      <point x="185" y="186" type="line"/>
      <point x="202" y="137" type="line"/>
      <point x="287" y="137" type="line"/>
    </contour>
    <contour>
      <point x="198" y="-17" type="line"/>
      <point x="210" y="41" type="line"/>
      <point x="299" y="41" type="line"/>
      <point x="269" y="-88" type="line"/>
      <point x="126" y="-88" type="line"/>
      <point x="111" y="-159" type="line"/>
      <point x="113" y="-164"/>
      <point x="115" y="-166"/>
      <point x="117" y="-171" type="qcurve"/>
      <point x="169" y="-171" type="line"/>
      <point x="183" y="-156" type="line"/>
      <point x="189" y="-133" type="line"/>
      <point x="274" y="-133" type="line"/>
      <point x="261" y="-185" type="line"/>
      <point x="195" y="-250" type="line"/>
      <point x="59" y="-250" type="line"/>
      <point x="24" y="-182" type="line"/>
      <point x="55" y="-45" type="line"/>
      <point x="110" y="-17" type="line"/>
    </contour>
  </outline>
</glyph>
<glyph name="gcircumflex" format="2">
  <advance width="452"/>
  <unicode hex="011D"/>
  <outline>
    <contour>
      <point x="258" y="693" type="line"/>
      <point x="485" y="693" type="line"/>
      <point x="545" y="564" type="line"/>
      <point x="525" y="467" type="line"/>
      <point x="408" y="467" type="line"/>
      <point x="421" y="528" type="line"/>
      <point x="415" y="536"/>
      <point x="405" y="567"/>
      <point x="401" y="575" type="qcurve"/>
      <point x="289" y="575" type="line"/>
      <point x="252" y="528" type="line"/>
      <point x="179" y="186" type="line"/>
      <point x="196" y="137" type="line"/>
      <point x="338" y="137" type="line"/>
      <point x="364" y="259" type="line"/>
      <point x="271" y="259" type="line"/>
      <point x="296" y="379" type="line"/>
      <point x="506" y="379" type="line"/>
      <point x="429" y="17" type="line"/>
      <point x="114" y="17" type="line"/>
      <point x="53" y="152" type="line"/>
      <point x="140" y="564" type="line"/>
    </contour>
    <contour>
      <point x="201" y="732" type="line"/>
      <point x="291" y="867" type="line"/>
      <point x="405" y="867" type="line"/>
      <point x="315" y="732" type="line"/>
    </contour>
    <contour>
      <point x="427" y="732" type="line"/>
      <point x="368" y="867" type="line"/>
      <point x="483" y="867" type="line"/>
      <point x="541" y="732" type="line"/>
    </contour>
  </outline>
</glyph>
<glyph name="Gbreve" format="2">
  <advance width="452"/>
  <unicode hex="011E"/>
  <outline>
    <contour>
      <point x="258" y="693" type="line"/>
      <point x="485" y="693" type="line"/>
      <point x="545" y="564" type="line"/>
      <point x="525" y="467" type="line"/>
      <point x="408" y="467" type="line"/>
      <point x="421" y="528" type="line"/>
      <point x="415" y="536"/>
      <point x="405" y="567"/>
      <point x="401" y="575" type="qcurve"/>
      <point x="289" y="575" type="line"/>
      <point x="252" y="528" type="line"/>
      <point x="179" y="186" type="line"/>
      <point x="196" y="137" type="line"/>
      <point x="338" y="137" type="line"/>
      <point x="364" y="259" type="line"/>
      <point x="271" y="259" type="line"/>
      <point x="296" y="379" type="line"/>
      <point x="506" y="379" type="line"/>
      <point x="429" y="17" type="line"/>
      <point x="114" y="17" type="line"/>
      <point x="53" y="152" type="line"/>
      <point x="140" y="564" type="line"/>
    </contour>
    <contour>
      <point x="461" y="731" type="line"/>
      <point x="293" y="731" type="line"/>
      <point x="245" y="857" type="line"/>
      <point x="254" y="896" type="line"/>
      <point x="355" y="896" type="line"/>
      <point x="352" y="881" type="line"/>
      <point x="364" y="848" type="line"/>
      <point x="431" y="848" type="line"/>
      <point x="475" y="881" type="line"/>
      <point x="479" y="896" type="line"/>
      <point x="566" y="896" type="line"/>
      <point x="556" y="857" type="line"/>
    </contour>
  </outline>
</glyph>
<glyph name="Hcircumflex" format="2">
  <advance width="468"/>
  <unicode hex="0124"/>
  <outline>
    <contour>
      <point x="414" y="434" type="line"/>
      <point x="469" y="694" type="line"/>
      <point x="588" y="694" type="line"/>
      <point x="444" y="17" type="line"/>
      <point x="325" y="17" type="line"/>
      <point x="389" y="316" type="line"/>
      <point x="212" y="316" type="line"/>
      <point x="184" y="186" type="line"/>
      <point x="186" y="182"/>
      <point x="190" y="168"/>
      <point x="194" y="153"/>
      <point x="199" y="140"/>
      <point x="202" y="137" type="qcurve"/>
      <point x="299" y="137" type="line"/>
      <point x="273" y="17" type="line"/>
      <point x="119" y="17" type="line"/>
      <point x="58" y="152" type="line"/>
      <point x="173" y="694" type="line"/>
      <point x="292" y="694" type="line"/>
      <point x="237" y="434" type="line"/>
    </contour>
    <contour>
      <point x="213" y="732" type="line"/>
      <point x="303" y="867" type="line"/>
      <point x="417" y="867" type="line"/>
      <point x="327" y="732" type="line"/>
    </contour>
    <contour>
      <point x="439" y="732" type="line"/>
      <point x="380" y="867" type="line"/>
      <point x="495" y="867" type="line"/>
      <point x="553" y="732" type="line"/>
    </contour>
  </outline>
</glyph>
<glyph name="Hbar" format="2">
  <advance width="551"/>
  <unicode hex="0126"/>
  <outline>
    <contour>
      <point x="454" y="434" type="line"/>
      <point x="509" y="694" type="line"/>
      <point x="628" y="694" type="line"/>
      <point x="484" y="17" type="line"/>
      <point x="365" y="17" type="line"/>
      <point x="429" y="316" type="line"/>
      <point x="252" y="316" type="line"/>
      <point x="224" y="186" type="line"/>
      <point x="226" y="182"/>
      <point x="230" y="168"/>
      <point x="234" y="153"/>
      <point x="239" y="140"/>
      <point x="242" y="137" type="qcurve"/>
      <point x="339" y="137" type="line"/>
      <point x="313" y="17" type="line"/>
      <point x="159" y="17" type="line"/>
      <point x="98" y="152" type="line"/>
      <point x="213" y="694" type="line"/>
      <point x="332" y="694" type="line"/>
      <point x="277" y="434" type="line"/>
    </contour>
    <contour>
      <point x="105" y="505" type="line"/>
      <point x="131" y="625" type="line"/>
      <point x="680" y="625" type="line"/>
      <point x="654" y="505" type="line"/>
    </contour>
  </outline>
</glyph>
<glyph name="itilde" format="2">
  <advance width="278"/>
  <unicode hex="0129"/>
  <outline>
    <contour>
      <point x="182" y="186" type="line"/>
      <point x="200" y="137" type="line"/>
      <point x="298" y="137" type="line"/>
      <point x="272" y="17" type="line"/>
      <point x="116" y="17" type="line"/>
      <point x="57" y="152" type="line"/>
      <point x="172" y="693" type="line"/>
      <point x="290" y="693" type="line"/>
    </contour>
    <contour>
      <point x="82" y="761" type="line"/>
      <point x="91" y="781"/>
      <point x="115" y="821"/>
      <point x="145" y="852"/>
      <point x="183" y="872"/>
      <point x="206" y="872" type="qcurve" smooth="yes"/>
      <point x="228" y="872"/>
      <point x="271" y="850"/>
      <point x="288" y="838" type="qcurve" smooth="yes"/>
      <point x="306" y="826"/>
      <point x="319" y="823"/>
      <point x="322" y="823" type="qcurve" smooth="yes"/>
      <point x="333" y="823"/>
      <point x="348" y="844"/>
      <point x="364" y="872" type="qcurve"/>
      <point x="448" y="839" type="line"/>
      <point x="438" y="819"/>
      <point x="415" y="780"/>
      <point x="385" y="748"/>
      <point x="347" y="728"/>
      <point x="323" y="728" type="qcurve" smooth="yes"/>
      <point x="301" y="728"/>
      <point x="257" y="751"/>
      <point x="240" y="762" type="qcurve" smooth="yes"/>
      <point x="229" y="769"/>
      <point x="213" y="780"/>
      <point x="200" y="780"/>
      <point x="188" y="768"/>
      <point x="181" y="753" type="qcurve" smooth="yes"/>
      <point x="179" y="748"/>
      <point x="170" y="729"/>
      <point x="168" y="725" type="qcurve"/>
    </contour>
  </outline>
</glyph>
<glyph name="imacron" format="2">
  <advance width="278"/>
  <unicode hex="012B"/>
  <outline>
    <contour>
      <point x="182" y="186" type="line"/>
      <point x="200" y="137" type="line"/>
      <point x="298" y="137" type="line"/>
      <point x="272" y="17" type="line"/>
      <point x="116" y="17" type="line"/>
      <point x="57" y="152" type="line"/>
      <point x="172" y="693" type="line"/>
      <point x="290" y="693" type="line"/>
    </contour>
    <contour>
      <point x="114" y="731" type="line"/>
      <point x="140" y="851" type="line"/>
      <point x="422" y="851" type="line"/>
      <point x="396" y="731" type="line"/>
    </contour>
  </outline>
</glyph>
<glyph name="ibreve" format="2">
  <advance width="278"/>
  <unicode hex="012D"/>
  <outline>
    <contour>
      <point x="182" y="186" type="line"/>
      <point x="200" y="137" type="line"/>
      <point x="298" y="137" type="line"/>
      <point x="272" y="17" type="line"/>
      <point x="116" y="17" type="line"/>
      <point x="57" y="152" type="line"/>
      <point x="172" y="693" type="line"/>
      <point x="290" y="693" type="line"/>
    </contour>
    <contour>
      <point x="319" y="731" type="line"/>
      <point x="151" y="731" type="line"/>
      <point x="103" y="857" type="line"/>
      <point x="112" y="896" type="line"/>
      <point x="213" y="896" type="line"/>
      <point x="210" y="881" type="line"/>
      <point x="222" y="848" type="line"/>
      <point x="289" y="848" type="line"/>
      <point x="333" y="881" type="line"/>
      <point x="337" y="896" type="line"/>
      <point x="424" y="896" type="line"/>
      <point x="414" y="857" type="line"/>
    </contour>
  </outline>
</glyph>
<glyph name="iogonek" format="2">
  <advance width="278"/>
  <unicode hex="012F"/>
  <outline>
    <contour>
      <point x="182" y="186" type="line"/>
      <point x="200" y="137" type="line"/>
      <point x="298" y="137" type="line"/>
      <point x="272" y="17" type="line"/>
      <point x="116" y="17" type="line"/>
      <point x="57" y="152" type="line"/>
      <point x="172" y="693" type="line"/>
      <point x="290" y="693" type="line"/>
    </contour>
    <contour>
      <point x="134" y="-17" type="line"/>
      <point x="146" y="41" type="line"/>
      <point x="235" y="41" type="line"/>
      <point x="205" y="-88" type="line"/>
      <point x="62" y="-88" type="line"/>
      <point x="47" y="-159" type="line"/>
      <point x="49" y="-164"/>
      <point x="51" y="-166"/>
      <point x="53" y="-171" type="qcurve"/>
      <point x="105" y="-171" type="line"/>
      <point x="119" y="-156" type="line"/>
      <point x="125" y="-133" type="line"/>
      <point x="210" y="-133" type="line"/>
      <point x="197" y="-185" type="line"/>
      <point x="131" y="-250" type="line"/>
      <point x="-5" y="-250" type="line"/>
      <point x="-40" y="-182" type="line"/>
      <point x="-9" y="-45" type="line"/>
      <point x="46" y="-17" type="line"/>
    </contour>
  </outline>
</glyph>
<glyph name="Idotaccent" format="2">
  <advance width="278"/>
  <unicode hex="0130"/>
  <outline>
    <contour>
      <point x="182" y="186" type="line"/>
      <point x="200" y="137" type="line"/>
      <point x="298" y="137" type="line"/>
      <point x="272" y="17" type="line"/>
      <point x="116" y="17" type="line"/>
      <point x="57" y="152" type="line"/>
      <point x="172" y="693" type="line"/>
      <point x="290" y="693" type="line"/>
    </contour>
    <contour>
      <point x="184" y="731" type="line"/>
      <point x="210" y="851" type="line"/>
      <point x="329" y="851" type="line"/>
      <point x="303" y="731" type="line"/>
    </contour>
  </outline>
</glyph>
<glyph name="IJ" format="2">
  <advance width="591"/>
  <unicode hex="0132"/>
  <outline>
    <contour>
      <point x="182" y="186" type="line"/>
      <point x="200" y="137" type="line"/>
      <point x="298" y="137" type="line"/>
      <point x="272" y="17" type="line"/>
      <point x="116" y="17" type="line"/>
      <point x="57" y="152" type="line"/>
      <point x="172" y="693" type="line"/>
      <point x="290" y="693" type="line"/>
    </contour>
    <contour>
      <point x="583" y="694" type="line"/>
      <point x="703" y="694" type="line"/>
      <point x="588" y="152" type="line"/>
      <point x="468" y="17" type="line"/>
      <point x="315" y="17" type="line"/>
      <point x="341" y="137" type="line"/>
      <point x="436" y="137" type="line"/>
      <point x="475" y="186" type="line"/>
    </contour>
  </outline>
</glyph>
<glyph name="Jcircumflex" format="2">
  <advance width="296"/>
  <unicode hex="0134"/>
  <outline>
    <contour>
      <point x="296" y="694" type="line"/>
      <point x="416" y="694" type="line"/>
      <point x="301" y="152" type="line"/>
      <point x="181" y="17" type="line"/>
      <point x="28" y="17" type="line"/>
      <point x="54" y="137" type="line"/>
      <point x="149" y="137" type="line"/>
      <point x="188" y="186" type="line"/>
    </contour>
    <contour>
      <point x="201" y="732" type="line"/>
      <point x="291" y="867" type="line"/>
      <point x="405" y="867" type="line"/>
      <point x="315" y="732" type="line"/>
    </contour>
    <contour>
      <point x="427" y="732" type="line"/>
      <point x="368" y="867" type="line"/>
      <point x="483" y="867" type="line"/>
      <point x="541" y="732" type="line"/>
    </contour>
  </outline>
</glyph>
<glyph name="Ncommaaccent" format="2">
  <advance width="537"/>
  <unicode hex="0145"/>
  <outline>
    <contour>
      <point x="437" y="254" type="line"/>
      <point x="531" y="694" type="line"/>
      <point x="651" y="694" type="line"/>
      <point x="507" y="17" type="line"/>
      <point x="371" y="17" type="line"/>
      <point x="244" y="464" type="line"/>
      <point x="185" y="186" type="line"/>
      <point x="202" y="137" type="line"/>
      <point x="300" y="137" type="line"/>
      <point x="274" y="17" type="line"/>
      <point x="118" y="17" type="line"/>
      <point x="58" y="152" type="line"/>
      <point x="173" y="694" type="line"/>
      <point x="313" y="694" type="line"/>
    </contour>
    <contour>
      <point x="302" y="-177" type="line"/>
      <point x="183" y="-177" type="line"/>
      <point x="213" y="-9" type="line"/>
      <point x="332" y="-9" type="line"/>
    </contour>
  </outline>
</glyph>
<glyph name="ncaron" format="2">
  <advance width="537"/>
  <unicode hex="0148"/>
  <outline>
    <contour>
      <point x="437" y="254" type="line"/>
      <point x="531" y="694" type="line"/>
      <point x="651" y="694" type="line"/>
      <point x="507" y="17" type="line"/>
      <point x="371" y="17" type="line"/>
      <point x="244" y="464" type="line"/>
      <point x="185" y="186" type="line"/>
      <point x="202" y="137" type="line"/>
      <point x="300" y="137" type="line"/>
      <point x="274" y="17" type="line"/>
      <point x="118" y="17" type="line"/>
      <point x="58" y="152" type="line"/>
      <point x="173" y="694" type="line"/>
      <point x="313" y="694" type="line"/>
    </contour>
    <contour>
      <point x="351" y="731" type="line"/>
      <point x="268" y="858" type="line"/>
      <point x="313" y="900" type="line"/>
      <point x="394" y="832" type="line"/>
      <point x="505" y="890" type="line"/>
      <point x="550" y="855" type="line"/>
      <point x="456" y="731" type="line"/>
    </contour>
  </outline>
</glyph>
<glyph name="napostrophe" format="2">
  <advance width="677"/>
  <unicode hex="0149"/>
  <outline>
    <contour>
      <point x="582" y="254" type="line"/>
      <point x="676" y="694" type="line"/>
      <point x="796" y="694" type="line"/>
      <point x="652" y="17" type="line"/>
      <point x="516" y="17" type="line"/>
      <point x="389" y="464" type="line"/>
      <point x="330" y="186" type="line"/>
      <point x="347" y="137" type="line"/>
      <point x="445" y="137" type="line"/>
      <point x="419" y="17" type="line"/>
      <point x="263" y="17" type="line"/>
      <point x="203" y="152" type="line"/>
      <point x="318" y="694" type="line"/>
      <point x="458" y="694" type="line"/>
    </contour>
    <contour>
      <point x="156" y="694" type="line"/>
      <point x="275" y="694" type="line"/>
      <point x="233" y="495" type="line"/>
      <point x="114" y="495" type="line"/>
    </contour>
  </outline>
</glyph>
<glyph name="Eng" format="2">
  <advance width="537"/>
  <unicode hex="014A"/>
  <outline>
    <contour>
      <point x="437" y="254" type="line"/>
      <point x="531" y="694" type="line"/>
      <point x="651" y="694" type="line"/>
      <point x="477" y="-108" type="line"/>
      <point x="342" y="-200" type="line"/>
      <point x="269" y="-82" type="line"/>
      <point x="363" y="-22" type="line"/>
      <point x="371" y="17" type="line"/>
      <point x="244" y="464" type="line"/>
      <point x="185" y="186" type="line"/>
      <point x="202" y="137" type="line"/>
      <point x="300" y="137" type="line"/>
      <point x="274" y="17" type="line"/>
      <point x="118" y="17" type="line"/>
      <point x="58" y="152" type="line"/>
      <point x="173" y="694" type="line"/>
      <point x="313" y="694" type="line"/>
    </contour>
  </outline>
</glyph>
<glyph name="Obreve" format="2">
  <advance width="472"/>
  <unicode hex="014E"/>
  <outline>
    <contour>
      <point x="263" y="693" type="line"/>
      <point x="504" y="693" type="line"/>
      <point x="564" y="564" type="line"/>
      <point x="477" y="152" type="line"/>
      <point x="360" y="17" type="line"/>
      <point x="119" y="17" type="line"/>
      <point x="59" y="152" type="line"/>
      <point x="146" y="564" type="line"/>
    </contour>
    <contour>
      <point x="365" y="186" type="line"/>
      <point x="438" y="528" type="line"/>
      <point x="421" y="575" type="line"/>
      <point x="295" y="575" type="line"/>
      <point x="259" y="528" type="line"/>
      <point x="186" y="186" type="line"/>
      <point x="202" y="137" type="line"/>
      <point x="328" y="137" type="line"/>
    </contour>
    <contour>
      <point x="461" y="731" type="line"/>
      <point x="293" y="731" type="line"/>
      <point x="245" y="857" type="line"/>
      <point x="254" y="896" type="line"/>
      <point x="355" y="896" type="line"/>
      <point x="352" y="881" type="line"/>
      <point x="364" y="848" type="line"/>
      <point x="431" y="848" type="line"/>
      <point x="475" y="881" type="line"/>
      <point x="479" y="896" type="line"/>
      <point x="566" y="896" type="line"/>
      <point x="556" y="857" type="line"/>
    </contour>
  </outline>
</glyph>
<glyph name="oe" format="2">
  <advance width="949"/>
  <unicode hex="0153"/>
  <outline>
    <contour>
      <point x="438" y="528" type="line"/>
      <point x="421" y="575" type="line"/>
      <point x="295" y="575" type="line"/>
      <point x="259" y="528" type="line"/>
      <point x="186" y="186" type="line"/>
      <point x="202" y="137" type="line"/>
      <point x="328" y="137" type="line"/>
      <point x="365" y="186" type="line"/>
    </contour>
    <contour>
      <point x="587" y="137" type="line"/>
      <point x="681" y="258" type="line"/>
      <point x="816" y="258" type="line"/>
      <point x="792" y="142" type="line"/>
      <point x="728" y="142" type="line"/>
      <point x="631" y="17" type="line"/>
      <point x="420" y="17" type="line"/>
      <point x="399" y="62" type="line"/>
      <point x="360" y="17" type="line"/>
      <point x="119" y="17" type="line"/>
      <point x="59" y="152" type="line"/>
      <point x="146" y="564" type="line"/>
      <point x="263" y="693" type="line"/>
      <point x="861" y="693" type="line"/>
      <point x="836" y="575" type="line"/>
      <point x="568" y="575" type="line"/>
      <point x="538" y="434" type="line"/>
      <point x="717" y="434" type="line"/>
      <point x="692" y="316" type="line"/>
      <point x="513" y="316" type="line"/>
      <point x="485" y="186" type="line"/>
      <point x="502" y="137" type="line"/>
    </contour>
  </outline>
</glyph>
<glyph name="Scedilla" format="2">
  <advance width="457"/>
  <unicode hex="015E"/>
  <outline>
    <contour>
      <point x="489" y="693" type="line"/>
      <point x="549" y="564" type="line"/>
      <point x="529" y="467" type="line"/>
      <point x="411" y="467" type="line"/>
      <point x="424" y="528" type="line"/>
      <point x="406" y="575" type="line"/>
      <point x="293" y="575" type="line"/>
      <point x="256" y="528" type="line"/>
      <point x="244" y="472" type="line"/>
      <point x="263" y="434" type="line"/>
      <point x="434" y="434" type="line"/>
      <point x="497" y="317" type="line"/>
      <point x="462" y="152" type="line"/>
      <point x="345" y="17" type="line"/>
      <point x="116" y="17" type="line"/>
      <point x="57" y="152" type="line"/>
      <point x="76" y="243" type="line"/>
      <point x="195" y="243" type="line"/>
      <point x="183" y="186" type="line"/>
      <point x="200" y="137" type="line"/>
      <point x="313" y="137" type="line"/>
      <point x="351" y="186" type="line"/>
      <point x="371" y="279" type="line"/>
      <point x="350" y="316" type="line"/>
      <point x="180" y="316" type="line"/>
      <point x="116" y="432" type="line"/>
      <point x="144" y="564" type="line"/>
      <point x="260" y="693" type="line"/>
    </contour>
    <contour>
      <point x="273" y="83" type="line"/>
      <point x="251" y="2" type="line"/>
      <point x="258" y="-8" type="line"/>
      <point x="359" y="-8" type="line"/>
      <point x="402" y="-76" type="line"/>
      <point x="379" y="-165" type="line"/>
      <point x="303" y="-239" type="line"/>
      <point x="155" y="-239" type="line"/>
      <point x="115" y="-161" type="line"/>
      <point x="125" y="-121" type="line"/>
      <point x="220" y="-121" type="line"/>
      <point x="215" y="-144" type="line"/>
      <point x="221" y="-159" type="line"/>
      <point x="274" y="-159" type="line"/>
      <point x="290" y="-141" type="line"/>
      <point x="292" y="-130"/>
      <point x="300" y="-100"/>
      <point x="303" y="-89" type="qcurve"/>
      <point x="295" y="-78" type="line"/>
      <point x="194" y="-78" type="line"/>
      <point x="150" y="-21" type="line"/>
      <point x="182" y="83" type="line"/>
    </contour>
  </outline>
</glyph>
<glyph name="ogonek" format="2">
  <advance width="535"/>
  <unicode hex="02DB"/>
  <outline>
    <contour>
      <point x="261" y="-17" type="line"/>
      <point x="273" y="41" type="line"/>
      <point x="362" y="41" type="line"/>
      <point x="332" y="-88" type="line"/>
      <point x="189" y="-88" type="line"/>
      <point x="174" y="-159" type="line"/>
      <point x="176" y="-164"/>
      <point x="178" y="-166"/>
      <point x="180" y="-171" type="qcurve"/>
      <point x="232" y="-171" type="line"/>
      <point x="246" y="-156" type="line"/>
      <point x="252" y="-133" type="line"/>
      <point x="337" y="-133" type="line"/>
      <point x="324" y="-185" type="line"/>
      <point x="258" y="-250" type="line"/>
      <point x="122" y="-250" type="line"/>
      <point x="87" y="-182" type="line"/>
      <point x="118" y="-45" type="line"/>
      <point x="173" y="-17" type="line"/>
    </contour>
  </outline>
</glyph>
<glyph name="exclamdbl" format="2">
  <advance width="325"/>
  <unicode hex="203C"/>
  <outline>
    <contour>
      <point x="54" y="137" type="line"/>
      <point x="173" y="137" type="line"/>
      <point x="147" y="17" type="line"/>
      <point x="28" y="17" type="line"/>
    </contour>
    <contour>
      <point x="172" y="694" type="line"/>
      <point x="291" y="694" type="line"/>
      <point x="181" y="176" type="line"/>
      <point x="62" y="176" type="line"/>
    </contour>
    <contour>
      <point x="209" y="137" type="line"/>
      <point x="328" y="137" type="line"/>
      <point x="302" y="17" type="line"/>
      <point x="183" y="17" type="line"/>
    </contour>
    <contour>
      <point x="327" y="694" type="line"/>
      <point x="446" y="694" type="line"/>
      <point x="336" y="176" type="line"/>
      <point x="217" y="176" type="line"/>
    </contour>
  </outline>
</glyph>
<glyph name="estimated" format="2">
  <advance width="567"/>
  <unicode hex="212E"/>
  <outline>
    <contour>
      <point x="186" y="170" type="line"/>
      <point x="186" y="139" type="line"/>
      <point x="217" y="108"/>
      <point x="298" y="75"/>
      <point x="346" y="75" type="qcurve" smooth="yes"/>
      <point x="394" y="75"/>
      <point x="477" y="110"/>
      <point x="508" y="141" type="qcurve"/>
      <point x="508" y="170" type="line"/>
      <point x="570" y="170" type="line"/>
      <point x="536" y="111"/>
      <point x="418" y="40"/>
      <point x="345" y="40" type="qcurve" smooth="yes"/>
      <point x="291" y="40"/>
      <point x="195" y="81"/>
      <point x="125" y="151"/>
      <point x="84" y="247"/>
      <point x="84" y="301" type="qcurve" smooth="yes"/>
      <point x="84" y="355"/>
      <point x="125" y="450"/>
      <point x="195" y="520"/>
      <point x="291" y="561"/>
      <point x="345" y="561" type="qcurve" smooth="yes"/>
      <point x="399" y="561"/>
      <point x="494" y="520"/>
      <point x="564" y="450"/>
      <point x="605" y="355"/>
      <point x="605" y="301" type="qcurve" smooth="yes"/>
      <point x="605" y="293"/>
      <point x="605" y="278"/>
      <point x="603" y="271" type="qcurve"/>
      <point x="564" y="271" type="line"/>
      <point x="508" y="271" type="line"/>
      <point x="186" y="271" type="line"/>
    </contour>
    <contour>
      <point x="346" y="518" type="qcurve" smooth="yes"/>
      <point x="298" y="518"/>
      <point x="217" y="483"/>
      <point x="186" y="454" type="qcurve"/>
      <point x="186" y="355" type="line"/>
      <point x="508" y="355" type="line"/>
      <point x="508" y="453" type="line"/>
      <point x="477" y="483"/>
      <point x="394" y="518"/>
    </contour>
  </outline>
</glyph>
<glyph name="infinity" format="2">
  <advance width="909"/>
  <unicode hex="221E"/>
  <outline>
    <contour>
      <point x="907" y="507" type="qcurve" smooth="yes"/>
      <point x="956" y="449"/>
      <point x="956" y="356" type="qcurve" smooth="yes"/>
      <point x="956" y="262"/>
      <point x="907" y="206" type="qcurve" smooth="yes"/>
      <point x="858" y="148"/>
      <point x="766" y="133" type="qcurve"/>
      <point x="762" y="132" type="line"/>
      <point x="757" y="132" type="line" smooth="yes"/>
      <point x="668" y="132"/>
      <point x="592" y="185" type="qcurve" smooth="yes"/>
      <point x="558" y="208"/>
      <point x="525" y="247" type="qcurve" smooth="yes"/>
      <point x="522" y="250"/>
      <point x="516" y="256"/>
      <point x="513" y="261" type="qcurve"/>
      <point x="511" y="256"/>
      <point x="505" y="250"/>
      <point x="502" y="247" type="qcurve" smooth="yes"/>
      <point x="470" y="209"/>
      <point x="434" y="185" type="qcurve"/>
      <point x="360" y="132"/>
      <point x="270" y="132" type="qcurve" smooth="yes"/>
      <point x="265" y="132" type="line"/>
      <point x="261" y="133" type="line"/>
      <point x="168" y="148"/>
      <point x="119" y="206" type="qcurve" smooth="yes"/>
      <point x="70" y="262"/>
      <point x="70" y="356" type="qcurve" smooth="yes"/>
      <point x="70" y="449"/>
      <point x="119" y="507" type="qcurve" smooth="yes"/>
      <point x="168" y="563"/>
      <point x="261" y="580" type="qcurve"/>
      <point x="265" y="580" type="line"/>
      <point x="270" y="580" type="line" smooth="yes"/>
      <point x="359" y="580"/>
      <point x="434" y="528" type="qcurve" smooth="yes"/>
      <point x="471" y="502"/>
      <point x="502" y="465" type="qcurve" smooth="yes"/>
      <point x="507" y="460"/>
      <point x="513" y="452" type="qcurve"/>
      <point x="516" y="455"/>
      <point x="522" y="462"/>
      <point x="525" y="465" type="qcurve" smooth="yes"/>
      <point x="557" y="503"/>
      <point x="592" y="528" type="qcurve" smooth="yes"/>
      <point x="668" y="580"/>
      <point x="757" y="580" type="qcurve" smooth="yes"/>
      <point x="762" y="580" type="line"/>
      <point x="766" y="580" type="line"/>
      <point x="858" y="563"/>
    </contour>
    <contour>
      <point x="274" y="239" type="qcurve"/>
      <point x="374" y="240"/>
      <point x="451" y="356" type="qcurve"/>
      <point x="375" y="472"/>
      <point x="274" y="473" type="qcurve"/>
      <point x="222" y="464"/>
      <point x="177" y="409"/>
      <point x="177" y="356" type="qcurve" smooth="yes"/>
      <point x="177" y="303"/>
      <point x="222" y="249"/>
    </contour>
    <contour>
      <point x="753" y="239" type="qcurve"/>
      <point x="805" y="249"/>
      <point x="850" y="303"/>
      <point x="850" y="356" type="qcurve" smooth="yes"/>
      <point x="850" y="409"/>
      <point x="805" y="464"/>
      <point x="753" y="473" type="qcurve"/>
      <point x="650" y="472"/>
      <point x="576" y="356" type="qcurve"/>
      <point x="651" y="240"/>
    </contour>
  </outline>
</glyph>
<glyph name="approxequal" format="2">
  <advance width="358"/>
  <unicode hex="2248"/>
  <outline>
    <contour>
      <point x="63" y="374" type="line"/>
      <point x="71" y="393"/>
      <point x="93" y="430"/>
      <point x="121" y="459"/>
      <point x="156" y="477"/>
      <point x="177" y="477" type="qcurve" smooth="yes"/>
      <point x="197" y="477"/>
      <point x="237" y="456"/>
      <point x="253" y="445" type="qcurve" smooth="yes"/>
      <point x="270" y="434"/>
      <point x="281" y="431"/>
      <point x="284" y="431" type="qcurve" smooth="yes"/>
      <point x="295" y="431"/>
      <point x="309" y="451"/>
      <point x="323" y="477" type="qcurve"/>
      <point x="400" y="446" type="line"/>
      <point x="391" y="428"/>
      <point x="370" y="392"/>
      <point x="343" y="362"/>
      <point x="308" y="344"/>
      <point x="286" y="344" type="qcurve" smooth="yes"/>
      <point x="265" y="344"/>
      <point x="225" y="364"/>
      <point x="209" y="375" type="qcurve" smooth="yes"/>
      <point x="198" y="382"/>
      <point x="184" y="391"/>
      <point x="172" y="392"/>
      <point x="161" y="381"/>
      <point x="155" y="367" type="qcurve" smooth="yes"/>
      <point x="153" y="362"/>
      <point x="144" y="345"/>
      <point x="142" y="341" type="qcurve"/>
    </contour>
    <contour>
      <point x="65" y="209" type="line"/>
      <point x="73" y="228"/>
      <point x="95" y="264"/>
      <point x="123" y="293"/>
      <point x="158" y="311"/>
      <point x="179" y="311" type="qcurve" smooth="yes"/>
      <point x="199" y="311"/>
      <point x="239" y="291"/>
      <point x="255" y="280" type="qcurve" smooth="yes"/>
      <point x="272" y="269"/>
      <point x="284" y="266"/>
      <point x="286" y="266" type="qcurve"/>
      <point x="297" y="266"/>
      <point x="310" y="286"/>
      <point x="325" y="311" type="qcurve"/>
      <point x="403" y="281" type="line"/>
      <point x="394" y="263"/>
      <point x="372" y="227"/>
      <point x="345" y="197"/>
      <point x="309" y="179"/>
      <point x="287" y="179" type="qcurve" smooth="yes"/>
      <point x="267" y="179"/>
      <point x="227" y="199"/>
      <point x="211" y="210" type="qcurve" smooth="yes"/>
      <point x="200" y="217"/>
      <point x="186" y="227"/>
      <point x="174" y="227"/>
      <point x="163" y="216"/>
      <point x="156" y="202" type="qcurve" smooth="yes"/>
      <point x="154" y="197"/>
      <point x="146" y="179"/>
      <point x="144" y="176" type="qcurve"/>
    </contour>
  </outline>
</glyph>
<glyph name="notequal" format="2">
  <advance width="464"/>
  <unicode hex="2260"/>
  <outline>
    <contour>
      <point x="72" y="200" type="line"/>
      <point x="98" y="320" type="line"/>
      <point x="488" y="320" type="line"/>
      <point x="462" y="200" type="line"/>
    </contour>
    <contour>
      <point x="109" y="379" type="line"/>
      <point x="135" y="499" type="line"/>
      <point x="525" y="499" type="line"/>
      <point x="499" y="379" type="line"/>
    </contour>
    <contour>
      <point x="137" y="111" type="line"/>
      <point x="381" y="577" type="line"/>
      <point x="479" y="577" type="line"/>
      <point x="235" y="111" type="line"/>
    </contour>
  </outline>
</glyph>
<glyph name="lessequal" format="2">
  <advance width="314"/>
  <unicode hex="2264"/>
  <outline>
    <contour>
      <point x="324" y="236" type="line"/>
      <point x="325" y="236" type="line"/>
    </contour>
    <contour>
      <point x="122" y="485" type="line"/>
      <point x="122" y="485"/>
      <point x="144" y="497"/>
      <point x="182" y="515"/>
      <point x="230" y="537"/>
      <point x="255" y="549" type="qcurve" smooth="yes"/>
      <point x="314" y="576"/>
      <point x="390" y="610" type="qcurve"/>
      <point x="365" y="493" type="line"/>
      <point x="254" y="444" type="line"/>
      <point x="339" y="398" type="line"/>
      <point x="314" y="281" type="line"/>
      <point x="254" y="315"/>
      <point x="208" y="342" type="qcurve" smooth="yes"/>
      <point x="188" y="354"/>
      <point x="151" y="376"/>
      <point x="122" y="394"/>
      <point x="105" y="405"/>
      <point x="106" y="406" type="qcurve"/>
    </contour>
    <contour>
      <point x="50" y="130" type="line"/>
      <point x="282" y="130" type="line"/>
      <point x="305" y="236" type="line"/>
      <point x="73" y="236" type="line"/>
    </contour>
  </outline>
</glyph>
<glyph name="greaterequal" format="2">
  <advance width="314"/>
  <unicode hex="2265"/>
  <outline>
    <contour>
      <point x="352" y="406" type="line"/>
      <point x="352" y="405"/>
      <point x="330" y="394"/>
      <point x="294" y="376"/>
      <point x="247" y="354"/>
      <point x="222" y="342" type="qcurve" smooth="yes"/>
      <point x="164" y="315"/>
      <point x="90" y="281" type="qcurve"/>
      <point x="115" y="398" type="line"/>
      <point x="220" y="444" type="line"/>
      <point x="129" y="493" type="line"/>
      <point x="154" y="610" type="line"/>
      <point x="215" y="576"/>
      <point x="263" y="549" type="qcurve" smooth="yes"/>
      <point x="283" y="537"/>
      <point x="322" y="515"/>
      <point x="352" y="497"/>
      <point x="370" y="485"/>
      <point x="370" y="485" type="qcurve"/>
    </contour>
    <contour>
      <point x="313" y="236" type="line"/>
      <point x="81" y="236" type="line"/>
      <point x="58" y="130" type="line"/>
      <point x="290" y="130" type="line"/>
    </contour>
  </outline>
</glyph>
